<?xml version="1.0" encoding="UTF-8"?>
<!DOCTYPE svg PUBLIC "-//W3C//DTD SVG 1.1//EN" "http://www.w3.org/Graphics/SVG/1.1/DTD/svg11.dtd">
<!-- Creator: CorelDRAW 2021 (64-Bit) -->
<svg xmlns="http://www.w3.org/2000/svg" xml:space="preserve" width="580.685mm" height="387.133mm" version="1.1" style="shape-rendering:geometricPrecision; text-rendering:geometricPrecision; image-rendering:optimizeQuality; fill-rule:evenodd; clip-rule:evenodd"
viewBox="0 0 49807.12 33205.54"
 xmlns:xlink="http://www.w3.org/1999/xlink"
 xmlns:xodm="http://www.corel.com/coreldraw/odm/2003">
 <defs>
  <style type="text/css">
   <![CDATA[
    .fil0 {fill:#264790;fill-rule:nonzero}
    .fil1 {fill:url(#id50)}
   ]]>
  </style>
    <clipPath id="id0">
     <path d="M45327.52 7100.07l0 4981.88 194.19 0 4283.61 -4283.66 0 -5175.98 -4477.8 4477.76z"/>
    </clipPath>
    <clipPath id="id1">
     <path d="M43127.56 9299.47l0 5175.77 2295.11 -2296.62 0 -5175.77 -2295.11 2296.62zm0 12032.18l0 5490.48 2295.11 -2256.46 0 -5530.64 -2295.11 2296.62z"/>
    </clipPath>
    <clipPath id="id2">
     <path d="M40928.17 11498.28l0 683.95 542.83 0 -542.83 559.6 0 3933.37 2295.11 -2295.14 0 -5176.92 -2295.11 2295.15z"/>
    </clipPath>
    <clipPath id="id3">
     <path d="M38728.78 15010.17l0 3863.11 2295.11 -2295.23 0 -3935.85 -2295.11 2367.97zm2295.11 -2828.63l0 -778.55 -778.07 778.55 778.07 0z"/>
    </clipPath>
    <clipPath id="id4">
     <path d="M45327.01 11986.05l0 289.26 289.54 -289.26 -289.54 0z"/>
    </clipPath>
    <clipPath id="id5">
     <path d="M36497.5 17313.57l0 3792.16 2326.94 -2327.56 0 -3865.09 -2326.94 2400.49z"/>
    </clipPath>
    <clipPath id="id6">
     <path d="M47558.25 16900.41l0 5560.3 2247.5 -2214.43 0 -5592.61 -2247.5 2246.75z"/>
    </clipPath>
    <clipPath id="id7">
     <path d="M34298 19581.9l0 3745.57c57.51,-72.92 118.94,-141.8 185.6,-208.65l2109.6 -2108.78 0 -3796.21 -2295.21 2368.07z"/>
    </clipPath>
    <clipPath id="id8">
     <path d="M45327.01 19131.26l0 5525.27 2326.94 -2289.85 0 -5562.99 -2326.94 2327.56z"/>
    </clipPath>
    <clipPath id="id9">
     <path d="M32098.61 21852.19l0 11350.79 2295.21 0 0 -6749.99c-826.72,-919.35 -826.72,-2318.54 0,-3237.9l0 -3729.83 -2295.21 2366.93z"/>
    </clipPath>
    <clipPath id="id10">
     <path d="M40928.17 23530.02l0 5459.84 2295.11 -2260.63 0 -5493.48 -2295.11 2294.27z"/>
    </clipPath>
    <clipPath id="id11">
     <path d="M29867.37 24155.01l0 9049.27 2326.94 0 0 -11451.19 -2326.94 2401.92z"/>
    </clipPath>
    <clipPath id="id12">
     <path d="M38728.78 25729.38l0 5426.2 2295.11 -2260.64 0 -5459.83 -2295.11 2294.27z"/>
    </clipPath>
    <clipPath id="id13">
     <path d="M27667.93 26422.85l0 6782.7 2295.21 0 0 -9149.63 -2295.21 2366.93z"/>
    </clipPath>
    <clipPath id="id14">
     <path d="M36497.5 27236.99l0 5968.56 150.72 0 2176.22 -2145.88 0 -5426.7 -912.92 913.89c-396.63,396.29 -897.06,628.12 -1414.01,690.13z"/>
    </clipPath>
    <clipPath id="id15">
     <path d="M25468.54 28691.46l0 4513.32 2295.11 0 0 -6879.37 -2295.11 2366.05z"/>
    </clipPath>
    <clipPath id="id16">
     <path d="M34298 26339.59l0 6865.19 2295.21 0 0 -5979.95c-130.71,20.26 -263.37,32.41 -395.39,32.41 -620.86,0 -1241.06,-237.01 -1714.22,-711.03 -66.66,-66.84 -128.09,-135.72 -185.6,-206.62z"/>
    </clipPath>
    <clipPath id="id17">
     <path d="M23269.14 30961.25l0 2242.6 2295.11 0 0 -4610.11 -2295.11 2367.51z"/>
    </clipPath>
    <clipPath id="id18">
     <path d="M23364.81 33204.56l0 -2341.37 -2269.43 2341.37 2269.43 0z"/>
    </clipPath>
    <clipPath id="id19">
     <path d="M0.42 7361.06l0 -7360.69 7472.79 0 -7472.79 7360.69 0 0z"/>
    </clipPath>
    <clipPath id="id20">
     <path d="M35413.26 3578.56l0 1203.96 2348.03 0 2498.05 -2485.74 0 -2290.54 -1275.86 2.74 -3570.22 3569.58z"/>
    </clipPath>
    <clipPath id="id21">
     <path d="M40163.23 6.38l0 2385.24 2402.66 -2390.81 -2402.66 5.58z"/>
    </clipPath>
    <clipPath id="id22">
     <path d="M33055.19 5936.84l0 3528.9 2453.86 -2443.24 0 -3539.11 -2453.86 2453.46z"/>
    </clipPath>
    <clipPath id="id23">
     <path d="M25946.75 9370.78l0 2551.02 4640.94 0 2563.55 -2551.02 0 -3528.7 -343.17 340.96c-471.85,474.46 -1092.83,710.66 -1713.8,710.66 -620.97,0 -1239.9,-236.2 -1713.8,-710.66 -28.6,-28.76 -57.2,-57.51 -83.75,-88.32l-3349.98 3276.07z"/>
    </clipPath>
    <clipPath id="id24">
     <path d="M35414.05 4686.53l0 2431.58 2443.38 -2431.58 -2443.38 0z"/>
    </clipPath>
    <clipPath id="id25">
     <path d="M23556.17 11706.92l0 7211.36 2485.95 -2474.98 0 -7167.29 -2485.95 2430.91z"/>
    </clipPath>
    <clipPath id="id26">
     <path d="M21197.28 14013.52l0 7252.04 2454.22 -2441.08 0 -7211.36 -2454.22 2400.4z"/>
    </clipPath>
    <clipPath id="id27">
     <path d="M18838.77 16319.43l0 7296.12 2453.86 -2444.47 0 -7252.05 -2453.86 2400.4z"/>
    </clipPath>
    <clipPath id="id28">
     <path d="M25946.08 11826.66l0 2453.86 2270.06 0 2466.63 -2453.86 -4736.69 0z"/>
    </clipPath>
    <clipPath id="id29">
     <path d="M16447.48 18657.31l0 7336.12 2486.91 -2473.61 0 -7292.07 -2486.91 2429.55z"/>
    </clipPath>
    <clipPath id="id30">
     <path d="M25946.8 14185.17l0 2354.58 2365.73 -2354.58 -2365.73 0z"/>
    </clipPath>
    <clipPath id="id31">
     <path d="M14089.25 20963.02l0 701.8c241.75,589.93 241.75,1254.45 0,1844.38l0 4831.3 2453.86 -2441.07 0 -7336.81 -2453.86 2400.4z"/>
    </clipPath>
    <clipPath id="id32">
     <path d="M11730.38 26130.41l0 4556.68 2454.21 -2441.08 0 -5017.78c-107.31,393.29 -314.96,762.84 -623.66,1071.36l-1830.56 1830.82zm2454.21 -4183.74l0 -1078.15 -344.93 339.04c159.57,227.15 273.86,478.04 344.93,739.11z"/>
    </clipPath>
    <clipPath id="id33">
     <path d="M9339.75 28520.28l0 4547.08 2485.96 -2473.91 0 -4551.17 -7.77 0 -2478.19 2477.99z"/>
    </clipPath>
    <clipPath id="id34">
     <path d="M6980.85 30879.95l0 2324.63 2221.48 0 232.75 -232.6 0 -4546.04 -2454.22 2454.01z"/>
    </clipPath>
    <clipPath id="id35">
     <path d="M7076.21 33204.56l0 -2411.95 -7.66 0 -2411.71 2411.95 2419.37 0z"/>
    </clipPath>
    <clipPath id="id36">
     <path d="M1.84 25901.64l0 -8139.21 17621.33 -17758.94 7475.5 0 -25096.83 25898.15 0 0z"/>
    </clipPath>
    <clipPath id="id37">
     <path d="M16603.07 33203.49l-3416.42 0 20862.95 -21022.47 885.01 0c91.1,448.82 312.36,873.69 663.76,1220.78 136.65,143.62 286.33,257.32 449.01,359.05l-19444.33 19442.65 0 0z"/>
    </clipPath>
    <clipPath id="id38">
     <path d="M21097.29 33203.49l-4492.1 0 19442.17 -19442.65c382.61,233.39 821.89,353.07 1261.19,353.07 623.51,0 1239.93,-233.38 1714.65,-712.11l1225.76 -1220.78 1225.76 0 -20377.43 21022.47 0 0z"/>
    </clipPath>
    <clipPath id="id39">
     <path d="M6593.64 9945.32c-621.97,0 -1240.05,-235.63 -1714.31,-709.72 -944.61,-948.19 -944.61,-2481.18 0,-3429.37l5807.66 -5805.5 6853.34 0 -9232.37 9234.87c-474.26,474.09 -1096.23,709.72 -1714.31,709.72l0 0z"/>
    </clipPath>
    <clipPath id="id40">
     <path d="M37622.86 12180.58l-2686.38 0c-158.53,-769.25 59.99,-1604.62 659.82,-2203.31l9974.27 -9975.8 4233.07 0 -12180.78 12179.11 0 0z"/>
    </clipPath>
    <clipPath id="id41">
     <path d="M40245.53 12180.58l-2621 0 12182.59 -12179.11 0 2621 -9561.59 9558.11 0 0z"/>
    </clipPath>
    <clipPath id="id42">
     <path d="M36046.42 13760.01c-160.91,-98.35 -312.27,-216.56 -450.87,-355.57 -348.11,-347.54 -567.97,-774.5 -660.37,-1222.75l2689.28 0 -1578.03 1578.32 0 0z"/>
    </clipPath>
    <clipPath id="id43">
     <path d="M37308.92 14114.58c-437.47,0 -876.16,-118.53 -1262.31,-354.43l1577.59 -1578.64 2621.16 0 -1221.99 1223.06c-474.13,472.96 -1093.67,710.01 -1714.45,710.01l0 0z"/>
    </clipPath>
    <clipPath id="id44">
     <path d="M29294.98 6095.74c-860.59,-951.03 -833.4,-2421.45 84.55,-3339.14l2756.87 -2756.6 6854.45 0 -6.05 8.77 -3472.51 8.77 -6217.31 6078.19 0 0z"/>
    </clipPath>
    <clipPath id="id45">
     <path d="M31095.96 6894.63c-622.65,0 -1242.54,-237.67 -1715.75,-711.02 -27.68,-29.7 -55.35,-57.43 -83.02,-89.12l6215.46 -6078.31 3470.26 -7.93 -6173.97 6175.36c-473.22,473.36 -1093.1,711.02 -1712.99,711.02l0 0z"/>
    </clipPath>
    <clipPath id="id46">
     <path d="M1569.61 33202.94l-1567.92 0 0 -2198.01 10130.29 -10133.19c473.93,-473.13 1093.99,-707.83 1714.05,-707.83 620.06,0 1240.12,234.7 1714.05,707.83 106.63,104.31 197.48,216.07 280.41,335.29l-12270.88 11995.91 0 0z"/>
    </clipPath>
    <clipPath id="id47">
     <path d="M4657.65 33203.4l-3090.38 0 12272.98 -11998.39c656.43,945.62 560.54,2254.41 -280.27,3093.82l-8902.33 8904.57 0 0z"/>
    </clipPath>
    <clipPath id="id48">
     <path d="M49805.57 33204.77l-6224.74 0 6224.74 -6224.74 0 6224.74 0 0z"/>
    </clipPath>
    <clipPath id="id49">
     <path d="M36199.39 27254.6c-621.54,0 -1243.08,-233.07 -1716.19,-710.32 -946.23,-943.39 -946.23,-2480.57 0,-3423.96l15320.47 -15321.85 0 6853.49 -11892.74 11892.32c-473.11,477.25 -1094.65,710.32 -1711.55,710.32l0 0z"/>
    </clipPath>
  <radialGradient id="id50" gradientUnits="userSpaceOnUse" gradientTransform="matrix(1.49992 1.9759 1.9759 -1.49993 3706 -33270)" cx="10957.21" cy="-4647.99" r="11347.06" fx="10957.21" fy="-4647.99">
   <stop offset="0" style="stop-opacity:1; stop-color:#2373B8"/>
   <stop offset="1" style="stop-opacity:1; stop-color:#1A4F9C"/>
  </radialGradient>
 </defs>
 <g id="Layer_x0020_1">
  <metadata id="CorelCorpID_0Corel-Layer"/>
  <g id="_1827277299088">
   <polygon class="fil0" points="-0,33204.23 49805.55,33204.23 49805.55,0.53 -0,0.53 "/>
   <path class="fil1" d="M43581.44 33204.23l-6933.46 0 13157.57 -12957.28 0 6733.16 -6224.11 6224.13zm-30394.25 0l-3985.06 0 33363.4 -33203.7 -3582.01 8.3 8.3 -8.3 -6855.77 0 -2755.36 2755.37c-917.63,917.62 -945.78,2387.95 -84.28,3339.36l-15456.44 15111.14c-81.54,-117.53 -174.65,-229.44 -279.39,-334.16 -473.28,-473.28 -1093.59,-709.95 -1713.9,-709.95 -620.39,0 -1240.7,236.67 -1713.98,709.95l-10132.72 10132.72 0 2199.28 0 -33203.7 49805.55 0 -4234.27 0 -9976.06 9976.12c-598.93,598.85 -818.87,1433.2 -659.95,2205.04l-885.33 0 -20862.74 21022.53zm-13187.2 -15444.25l0 8139.16 25101.6 -25898.61 -7477.19 0 -17624.41 17759.45zm10686.01 -17759.45l-5806.61 5806.65c-946.59,946.57 -946.59,2481.32 0,3427.89 473.28,473.28 1093.61,709.89 1713.92,709.89 620.31,0 1240.62,-236.61 1713.98,-709.89l9234.55 -9234.54 -6855.84 0zm-10686.01 0l0 7359.92 7473.69 -7359.92 -7473.69 0z"/>
   <g style="clip-path:url(#id0)">
    <image x="45322.38" y="2576.47" width="4536.95" height="9510.87" xlink:href="back_Images\back_ImgID1.png"/>
   </g>
   <g style="clip-path:url(#id1)">
    <image x="43124.3" y="4940.57" width="2299.02" height="23622.43" xlink:href="back_Images\back_ImgID2.png"/>
   </g>
   <g style="clip-path:url(#id2)">
    <image x="40926.22" y="7264.83" width="2299.02" height="9537.43" xlink:href="back_Images\back_ImgID3.png"/>
   </g>
   <g style="clip-path:url(#id3)">
    <image x="38728.13" y="9622.29" width="2299.02" height="9504.22" xlink:href="back_Images\back_ImgID4.png"/>
   </g>
   <g style="clip-path:url(#id4)">
    <image x="45322.38" y="11979.75" width="2332.23" height="2465.04" xlink:href="back_Images\back_ImgID5.png"/>
   </g>
   <g style="clip-path:url(#id5)">
    <image x="36496.84" y="14343.86" width="2332.23" height="7146.76" xlink:href="back_Images\back_ImgID6.png"/>
   </g>
   <g style="clip-path:url(#id6)">
    <image x="47553.67" y="14343.86" width="2305.66" height="9504.22" xlink:href="back_Images\back_ImgID7.png"/>
   </g>
   <g style="clip-path:url(#id7)">
    <image x="34292.12" y="16701.32" width="2305.66" height="7146.76" xlink:href="back_Images\back_ImgID8.png"/>
   </g>
   <g style="clip-path:url(#id8)">
    <image x="45322.38" y="16701.32" width="2332.23" height="9504.22" xlink:href="back_Images\back_ImgID9.png"/>
   </g>
   <g style="clip-path:url(#id9)">
    <image x="32094.03" y="19025.57" width="2305.66" height="14225.79" xlink:href="back_Images\back_ImgID10.png"/>
   </g>
   <g style="clip-path:url(#id10)">
    <image x="40926.22" y="19025.57" width="2299.02" height="11868.33" xlink:href="back_Images\back_ImgID11.png"/>
   </g>
   <g style="clip-path:url(#id11)">
    <image x="29862.75" y="21383.04" width="2332.23" height="11868.33" xlink:href="back_Images\back_ImgID12.png"/>
   </g>
   <g style="clip-path:url(#id12)">
    <image x="38728.13" y="21383.04" width="2299.02" height="11868.33" xlink:href="back_Images\back_ImgID13.png"/>
   </g>
   <g style="clip-path:url(#id13)">
    <image x="27664.66" y="23740.5" width="2305.66" height="9510.87" xlink:href="back_Images\back_ImgID14.png"/>
   </g>
   <g style="clip-path:url(#id14)">
    <image x="36496.84" y="23740.5" width="2332.23" height="9510.87" xlink:href="back_Images\back_ImgID15.png"/>
   </g>
   <g style="clip-path:url(#id15)">
    <image x="25466.58" y="26104.61" width="2299.02" height="7146.76" xlink:href="back_Images\back_ImgID16.png"/>
   </g>
   <g style="clip-path:url(#id16)">
    <image x="34292.12" y="26104.61" width="2305.66" height="7146.76" xlink:href="back_Images\back_ImgID17.png"/>
   </g>
   <g style="clip-path:url(#id17)">
    <image x="23268.49" y="28462.06" width="2299.02" height="4789.3" xlink:href="back_Images\back_ImgID18.png"/>
   </g>
   <g style="clip-path:url(#id18)">
    <image x="21037.2" y="30786.32" width="2332.23" height="2465.04" xlink:href="back_Images\back_ImgID19.png"/>
   </g>
   <g style="clip-path:url(#id19)">
    <image x="-33.86" y="-33.34" width="7558.49" height="7432.31" xlink:href="back_Images\back_ImgID20.png"/>
   </g>
   <g style="clip-path:url(#id20)">
    <image x="35407.76" y="-33.34" width="4855.71" height="4815.86" xlink:href="back_Images\back_ImgID21.png"/>
   </g>
   <g style="clip-path:url(#id21)">
    <image x="40162.53" y="-33.34" width="2458.4" height="2458.4" xlink:href="back_Images\back_ImgID22.png"/>
   </g>
   <g style="clip-path:url(#id22)">
    <image x="33050.3" y="2324.13" width="2465.04" height="7213.17" xlink:href="back_Images\back_ImgID23.png"/>
   </g>
   <g style="clip-path:url(#id23)">
    <image x="25944.71" y="4681.59" width="7206.53" height="7246.37" xlink:href="back_Images\back_ImgID24.png"/>
   </g>
   <g style="clip-path:url(#id24)">
    <image x="35407.76" y="4681.59" width="2465.04" height="2491.61" xlink:href="back_Images\back_ImgID25.png"/>
   </g>
   <g style="clip-path:url(#id25)">
    <image x="23554.04" y="7072.25" width="2491.61" height="11961.3" xlink:href="back_Images\back_ImgID26.png"/>
   </g>
   <g style="clip-path:url(#id26)">
    <image x="21196.58" y="9429.72" width="2458.4" height="11961.3" xlink:href="back_Images\back_ImgID27.png"/>
   </g>
   <g style="clip-path:url(#id27)">
    <image x="18832.48" y="11820.38" width="2465.04" height="11961.3" xlink:href="back_Images\back_ImgID28.png"/>
   </g>
   <g style="clip-path:url(#id28)">
    <image x="25944.71" y="11820.38" width="4815.86" height="2465.04" xlink:href="back_Images\back_ImgID29.png"/>
   </g>
   <g style="clip-path:url(#id29)">
    <image x="16441.81" y="14184.48" width="2498.25" height="11954.66" xlink:href="back_Images\back_ImgID30.png"/>
   </g>
   <g style="clip-path:url(#id30)">
    <image x="25944.71" y="14184.48" width="2458.4" height="2458.4" xlink:href="back_Images\back_ImgID31.png"/>
   </g>
   <g style="clip-path:url(#id31)">
    <image x="14084.35" y="16541.94" width="2465.04" height="11961.3" xlink:href="back_Images\back_ImgID32.png"/>
   </g>
   <g style="clip-path:url(#id32)">
    <image x="11726.89" y="18932.6" width="2458.4" height="11961.3" xlink:href="back_Images\back_ImgID33.png"/>
   </g>
   <g style="clip-path:url(#id33)">
    <image x="9336.22" y="26038.19" width="2491.61" height="7213.17" xlink:href="back_Images\back_ImgID34.png"/>
   </g>
   <g style="clip-path:url(#id34)">
    <image x="6978.76" y="28395.66" width="2458.4" height="4855.71" xlink:href="back_Images\back_ImgID35.png"/>
   </g>
   <g style="clip-path:url(#id35)">
    <image x="4621.3" y="30786.32" width="2458.4" height="2465.04" xlink:href="back_Images\back_ImgID36.png"/>
   </g>
   <g style="clip-path:url(#id36)">
    <image x="-33.86" y="-33.34" width="25189.65" height="25986.54" xlink:href="back_Images\back_ImgID37.png"/>
   </g>
   <g style="clip-path:url(#id37)">
    <image x="13128.08" y="12139.13" width="22958.36" height="21112.24" xlink:href="back_Images\back_ImgID38.png"/>
   </g>
   <g style="clip-path:url(#id38)">
    <image x="16541.42" y="12139.13" width="24997.07" height="21112.24" xlink:href="back_Images\back_ImgID39.png"/>
   </g>
   <g style="clip-path:url(#id39)">
    <image x="3884.18" y="-33.34" width="13714.45" height="10015.56" xlink:href="back_Images\back_ImgID40.png"/>
   </g>
   <g style="clip-path:url(#id40)">
    <image x="34743.69" y="-33.34" width="15115.65" height="12280.05" xlink:href="back_Images\back_ImgID41.png"/>
   </g>
   <g style="clip-path:url(#id41)">
    <image x="37579.28" y="-33.34" width="12280.05" height="12280.05" xlink:href="back_Images\back_ImgID42.png"/>
   </g>
   <g style="clip-path:url(#id42)">
    <image x="34869.86" y="12139.14" width="2810.36" height="1668.15" xlink:href="back_Images\back_ImgID43.png"/>
   </g>
   <g style="clip-path:url(#id43)">
    <image x="35985.51" y="12139.14" width="4311.17" height="2020.11" xlink:href="back_Images\back_ImgID44.png"/>
   </g>
   <g style="clip-path:url(#id44)">
    <image x="28395.14" y="-33.34" width="10653.07" height="6190.5" xlink:href="back_Images\back_ImgID45.png"/>
   </g>
   <g style="clip-path:url(#id45)">
    <image x="29258.44" y="-33.34" width="9763.21" height="6987.38" xlink:href="back_Images\back_ImgID46.png"/>
   </g>
   <g style="clip-path:url(#id46)">
    <image x="-33.86" y="20108.02" width="13933.6" height="13143.35" xlink:href="back_Images\back_ImgID47.png"/>
   </g>
   <g style="clip-path:url(#id47)">
    <image x="1526.72" y="21163.89" width="13010.53" height="12087.47" xlink:href="back_Images\back_ImgID48.png"/>
   </g>
   <g style="clip-path:url(#id48)">
    <image x="43536.03" y="26928.05" width="6323.31" height="6323.31" xlink:href="back_Images\back_ImgID49.png"/>
   </g>
   <g style="clip-path:url(#id49)">
    <image x="33495.23" y="7742.97" width="16364.11" height="19578.22" xlink:href="back_Images\back_ImgID50.png"/>
   </g>
  </g>
 </g>
</svg>
