<?xml version="1.0" encoding="UTF-8"?>
<!DOCTYPE svg PUBLIC "-//W3C//DTD SVG 1.1//EN" "http://www.w3.org/Graphics/SVG/1.1/DTD/svg11.dtd">
<!-- Creator: CorelDRAW 2021 (64-Bit) -->
<svg xmlns="http://www.w3.org/2000/svg" xml:space="preserve" width="158.121mm" height="56.8245mm" version="1.1" style="shape-rendering:geometricPrecision; text-rendering:geometricPrecision; image-rendering:optimizeQuality; fill-rule:evenodd; clip-rule:evenodd"
viewBox="0 0 24571.94 8830.49"
 xmlns:xlink="http://www.w3.org/1999/xlink"
 xmlns:xodm="http://www.corel.com/coreldraw/odm/2003">
 <defs>
  <style type="text/css">
   <![CDATA[
    .fil0 {fill:white}
   ]]>
  </style>
 </defs>
 <g id="Layer_x0020_1">
  <metadata id="CorelCorpID_0Corel-Layer"/>
  <g id="_1827317492832">
   <path class="fil0" d="M3647.41 2495.57c0,-552.07 -33.33,-1108.42 388.96,-1530.68 392.37,-392.34 822.51,-412.99 1338.75,-412.99 830.19,0 1391.76,623.43 1391.76,1463.77 0,584.69 37.09,1113.23 -413.25,1554.4 -425.81,417.17 -1292.89,485.95 -1832.69,283.59 -578.83,-217.02 -873.53,-732.97 -873.53,-1358.08zm1279.85 -2495.57l588.06 0c324.26,24.15 638.86,88.06 918.71,188.9 534.95,192.77 906.62,554.22 1156.9,1050.69 313.75,622.41 309.62,1416.03 0,2032.03 -133.74,266.14 -278.88,474.79 -495.15,656.66 -901.75,758.29 -2490.06,730.11 -3448.37,223.03l0 2951.47 1031.8 0c55.31,0 72,16.69 72,72 0,928.93 66.17,820.43 -239.52,816.3l-936.27 -0.44c-51.3,-220.15 -24.01,-620.31 -24.01,-863.85l-959.86 0 0 -4487.23c-600.96,317.96 -1623.3,282.39 -2104.96,-126.67 -420.73,-357.29 -486.6,-723.66 -486.6,-1241.11 0,-229.99 145.5,-560.68 282.21,-725.62 437.9,-528.23 849.3,-545.73 1509.88,-546.15l31.62 0c607.6,0 1109.47,346.42 1319.79,743.88 61.52,-41.23 198.99,-189.94 369.18,-302.72 390.91,-258.99 895.94,-402.28 1414.58,-441.16zm-4255.36 1655.72c0,-466.62 -65.58,-763.73 293.47,-1098.28 414.64,-386.34 1650.2,-321.66 1650.2,666.37l0 431.92c0,431.59 -361.69,815.85 -791.87,815.85l-359.94 0c-420.85,0 -791.87,-398.13 -791.87,-815.85z"/>
   <path class="fil0" d="M17157.17 3287.44c0,-755.44 -54.84,-1320.61 778.38,-1431.17 502.5,-66.67 877.35,336.5 877.35,903.24 0,691.68 78.48,1439.76 -839.89,1439.76 -562.72,0 -815.85,-350.81 -815.85,-911.84zm-743.88 -3287.44l674.73 0c82.39,14.37 72.07,56.38 71.22,165.89l-2.07 1513.81c466.31,-108.62 134.4,-191.95 1079.82,-191.95 1074.74,0 1532.47,1242.59 1185.28,2241.12 -46.79,134.59 -184.16,366.09 -281.49,462.36 -452.9,448.11 -1292.8,480.65 -1860.32,268.69 -677.45,-253.04 -867.17,-842.96 -867.17,-1628.4l0 -2831.52z"/>
   <path class="fil0" d="M22892.22 4127.3c0,765.93 54.73,1506.92 311.87,2015.75 290.99,575.88 656.28,900.52 1367.86,959.73l0 -575.89c-114.42,-54.9 -227.5,-21.01 -415.46,-160.42 -344.64,-255.65 -520.39,-807.66 -520.39,-1279.32l0 -5087.14 -743.88 0 0 4127.3z"/>
   <path class="fil0" d="M14709.56 4199.28c-866.43,0 -791.87,-807.42 -791.87,-1391.74 0,-468.12 212.06,-887.87 671.9,-887.87 232.54,0 500,-29.04 689.66,126.18 103.23,84.49 143.42,158.8 198.37,281.57 39.05,87.21 86.08,270.85 94.33,385.62 5.24,72.96 15.8,184.96 17.68,219.73 3.54,66.51 -14.62,109.57 -16.24,210.49 -8.59,528.98 -265.9,1056.02 -863.83,1056.02zm-1511.74 -1319.76c0,507.15 47.04,986.69 401.09,1326.6 368.36,353.67 1218.41,531.4 1642.85,213.41 43.93,-32.9 142.28,-134.08 178.1,-181.85 31.65,-42.14 50.02,-73.4 76.72,-115.26l76.86 -115.09c0,711.74 -147.68,575.89 671.87,575.89 55.31,0 72,-16.69 72,-71.98 0,-609.01 48.95,-1478.9 -90.75,-2020.87 -156.19,-606.04 -682.22,-954.65 -1373.02,-954.65 -633.83,0 -1245.48,70.18 -1526.05,777.56 -58.13,146.53 -129.67,377.74 -129.67,566.24z"/>
   <path class="fil0" d="M9358.47 1919.66c318.07,0 595.97,-45.49 806.83,272.99 301.8,455.85 244.02,1547.81 -250.72,1890.85 -184.27,127.78 -331.31,112.84 -580.94,92.62 -239.07,-19.33 -364.1,-94.09 -473.28,-246.63 -91.22,-127.47 -173.75,-333.55 -174.75,-545.13 -0.71,-152.73 -12.04,-220.15 -22.33,-338.71 -11.73,-135.24 18.17,-199.1 23.37,-334.03 16.33,-421.55 234.08,-791.96 671.82,-791.96zm-1391.79 935.85c0,411.59 -24.77,538.83 123.01,932.78 301.75,804.32 1516.73,998.15 1899.06,609.35 65.53,-66.64 113.43,-114.81 179.61,-180.31 166.84,-165.1 105.11,-130.83 173.92,-210.01 0,716.28 -156.02,575.89 719.89,575.89l0 -1703.7c0,-323.67 -169.12,-734.39 -400.96,-966.82 -50.13,-50.26 -126.11,-104.24 -188.75,-147.18 -522.39,-358.16 -1712.47,-322.36 -2128.07,147.94 -173.95,196.86 -377.71,581.57 -377.71,942.05z"/>
   <path class="fil0" d="M21284.47 4199.28c-107.96,0 -327.91,-22.19 -405.9,-49.99 -512.23,-182.44 -505.93,-701.01 -505.93,-1197.77 0,-481.36 130.26,-1031.85 695.88,-1031.85 338.82,0 644.97,-35.96 832.44,319.36 157.25,297.96 447.13,1960.25 -616.48,1960.25zm-1631.72 -1175.78c0,1835.33 2104.84,1801.89 2693.89,1158.1 126.74,-138.54 216.75,-297.15 297.92,-469.93 332.43,-707.53 102.3,-2150.74 -1410.31,-2195.16 -833.53,-24.49 -1581.5,528.78 -1581.5,1506.98z"/>
   <path class="fil0" d="M11182.15 3071.48l0 1439.76c0,55.29 16.69,71.98 71.98,71.98 774.28,0 648.05,97.78 647.89,-383.95l-0.28 -1440.04c12.96,-271.34 141.63,-525.68 293.63,-666.23 303.71,-280.79 659.11,-245.33 1074.43,-245.33 0,-379.95 39.08,-335.93 -191.96,-335.93 -546.34,0 -947.94,68.1 -1354.44,373.25 -303,227.47 -541.24,662.72 -541.24,1186.47z"/>
   <path class="fil0" d="M3551.42 8374.56l0 455.93 623.88 0c0,-654.81 129.07,-527.92 -551.9,-527.92 -55.29,0 -71.98,16.72 -71.98,72z"/>
  </g>
 </g>
</svg>
